<?xml version="1.0" encoding="utf-8"?>
<!-- Generator: Adobe Illustrator 19.0.0, SVG Export Plug-In . SVG Version: 6.00 Build 0)  -->
<svg version="1.1" id="layer" xmlns="http://www.w3.org/2000/svg" xmlns:xlink="http://www.w3.org/1999/xlink" x="0px" y="0px"
	 viewBox="-153 -46 652 652" style="enable-background:new -153 -46 652 652;" xml:space="preserve">
<style type="text/css">
	.st0{fill:#F72717;}
</style>
<path class="st0" d="M309.5,223.1c-27.7,0-49.3,11.1-52.8,39.8c-0.3,0,0.2,0-0.1,0C247.9,132.7,145.2,29.7,12.7,29.7
	c-104.7,0-194.2,64.3-231.5,155.6h88.7l-4.6,29.9h-69.6v31.6h63.1l-4.8,28.8h-58.2v18.5c0,11.2,4.8,16.5,14.1,16.5h59.5l-4.8,29.9
	h-65.9c-3.2,0-6.3-0.3-9.2-0.8v0c0,0-11.4-1.2-18.5-10.4c-0.2-0.2-3.1-3.6-4.5-9.3c-0.4-1.5-0.4-1.6-0.7-2.7
	c0.5,3.7,1.3,8.7,1.6,10.6c2,10.4,4.6,19.3,4.8,19.9c29.6,105,126.1,182.1,240.6,182.1c117.1,0,216.1-80.6,243.2-189.3h-33.6v-61.1
	c0-16.5-6.4-27-22.6-27s-22.6,10.6-22.6,27v61.1h-33.6V271c0-33.2,24.2-47.9,56.2-47.9s56.2,14.7,56.2,47.9l0,69.4h33.8v-61.1
	c0-16.5,4.4-27,20.4-27c5.1,0,11.2,1.5,13.4,2.6l6.4-29.4C326.2,225.1,316.8,223.1,309.5,223.1z M1.3,276.1
	c0,42-24.8,66.6-65.9,66.6c-38,0-63.7-25.5-63.7-59.8c0-35.8,24.4-59.8,60.9-59.8c16.7,0,29,6.6,35.1,13.2v-51H1.3L1.3,276.1
	L1.3,276.1z M86.1,317.4c9.9,0,19-2.9,27.6-6.8l-2.8,26.6c-9.7,4-21.3,5.5-32.9,5.5c-38.7,0-65.9-22.6-65.9-61.1
	c0-33.4,24.4-58.4,61.7-58.4c42.2,0,63.3,26.8,62.4,68.1h-87C52.5,310.1,70.5,317.4,86.1,317.4z"/>
<path class="st0" d="M74.9,246.8c-14.5,0-23.7,9.4-26.6,22H100C98.2,255,88.5,246.8,74.9,246.8z M-63,252.3
	c-18.5,0-30.1,12.7-30.1,30.5c0,17.6,11.9,30.7,30.1,30.7s30.5-12.5,30.5-30.7S-44.8,252.3-63,252.3z"/>
<path class="st0" d="M385.7,223.1c-37.3,0-61.7,25-61.7,58.4c0,38.4,27.2,61.1,65.9,61.1c11.6,0,23.3-1.5,32.9-5.5l2.8-26.6
	c-8.6,4-17.7,6.8-27.6,6.8c-15.6,0-33.6-7.2-36.9-26.2h87C449,249.9,427.9,223.1,385.7,223.1z M360.3,268.8
	c2.9-12.5,12.1-22,26.6-22c13.6,0,23.3,8.1,25,22H360.3z M547.9,185.3v51c-6.2-6.6-18.5-13.2-35.1-13.2c-36.5,0-60.9,24-60.9,59.8
	c0,34.3,25.7,59.8,63.7,59.8c41.1,0,65.9-24.6,65.9-66.6v-90.7H547.9z M517.1,313.6c-18.2,0-30.1-13.2-30.1-30.7
	c0-17.8,11.6-30.5,30.1-30.5c18.2,0,30.5,12.3,30.5,30.5C547.7,301.1,535.4,313.6,517.1,313.6z"/>
</svg>
